<?xml version="1.0"?>
<svg xmlns="http://www.w3.org/2000/svg" xmlns:xlink="http://www.w3.org/1999/xlink" version="1.1" id="Layer_1" x="0px" y="0px" width="100%" viewBox="0 0 385 364" enable-background="new 0 0 385 364" xml:space="preserve" style="background-color:transparent;">
<path fill="none" opacity="1.000000" stroke="none" d=" M212.000000,365.000000   C141.356750,365.000000 71.213501,365.000000 1.035125,365.000000   C1.035125,243.730591 1.035125,122.461159 1.035125,1.095863   C129.226532,1.095863 257.453156,1.095863 385.839905,1.095863   C385.839905,122.333168 385.839905,243.666565 385.839905,365.000000   C328.127899,365.000000 270.313965,365.000000 212.000000,365.000000  M134.087036,245.564011   C132.134933,251.432312 128.337296,254.002533 121.987808,252.967285   C119.604225,252.578674 116.972755,253.036407 114.563301,253.586121   C93.337280,258.428802 80.256676,280.894409 86.103363,302.307648   C91.748970,322.984436 114.442047,334.990509 135.111435,328.235962   C159.670319,320.210358 169.845459,292.263855 156.242554,270.188202   C154.962662,268.111115 153.461639,266.436462 155.205795,263.512207   C163.390427,249.789841 171.342346,235.927109 179.235916,222.034134   C180.624435,219.590271 182.198898,219.127274 184.873291,219.374115   C205.266434,221.256409 224.910629,204.118454 226.003891,183.668167   C227.292328,159.566696 211.019730,142.276337 186.568893,142.112946   C182.552048,142.086105 180.248535,140.910110 178.282013,137.365509   C171.418701,124.994644 164.351837,112.730431 157.064682,100.604561   C154.620148,96.536865 154.127182,93.597824 156.959320,89.111900   C165.139023,76.155769 163.856262,57.946472 154.600372,46.370613   C144.049164,33.174767 129.997818,29.000576 113.966507,32.493896   C98.818512,35.794735 86.788971,50.026119 84.897110,65.236282   C81.875923,89.526077 99.870979,109.404884 124.580292,108.955147   C127.540764,108.901260 129.853271,108.896851 131.624420,112.059921   C139.181000,125.555168 146.993820,138.907745 154.797195,152.263275   C156.379013,154.970566 156.545944,157.200317 154.768311,160.052094   C146.134613,173.902664 145.845718,187.961121 154.704285,201.840546   C156.590393,204.795624 156.525635,207.048080 154.765671,210.013382   C147.892471,221.593811 141.266235,233.320801 134.087036,245.564011  M289.327942,297.661438   C291.307251,287.480316 288.732025,278.269287 283.661469,269.458069   C282.759338,267.890442 282.226410,265.120392 283.001740,263.730438   C290.865845,249.632492 298.968903,235.665207 307.236755,221.799469   C307.995300,220.527313 310.292938,219.793427 311.987030,219.533371   C316.211365,218.884949 320.687347,219.306870 324.731018,218.145569   C345.595520,212.153549 356.988678,194.101059 352.824860,172.447922   C349.876221,157.113815 340.103485,146.859085 324.904419,142.947296   C309.367737,138.948578 295.378479,142.270111 285.002380,155.221161   C273.699585,169.328857 273.025909,186.802353 282.173126,202.309982   C283.189636,204.033295 283.540222,207.206360 282.634521,208.838577   C275.692596,221.348892 268.006958,233.455750 261.321259,246.094666   C258.468597,251.487457 255.175674,253.088104 249.277786,253.092911   C230.152817,253.108475 213.333084,269.501556 212.069016,288.610382   C210.691696,309.431122 225.235504,327.184113 245.884201,329.887115   C266.212402,332.548126 285.309174,318.702393 289.327942,297.661438  M256.789795,108.508644   C279.390259,104.618446 293.170929,84.851402 289.108490,62.150620   C285.794189,43.630520 268.180847,29.830591 249.579712,31.180117   C228.903244,32.680206 212.751358,48.348373 211.988907,67.645157   C210.990219,92.920700 230.043137,110.723732 256.789795,108.508644  M22.107607,169.897293   C15.366108,195.657974 32.752338,219.040329 59.130581,219.688660   C84.170555,220.304092 103.749458,195.512695 97.319138,170.996658   C93.404068,156.070206 83.918060,146.229782 68.648186,142.939285   C48.075737,138.506195 29.210077,149.263199 22.107607,169.897293  z"/>
<path fill="#498D5F" opacity="1.000000" stroke="none" d=" M134.317627,245.278656   C141.266235,233.320801 147.892471,221.593811 154.765671,210.013382   C156.525635,207.048080 156.590393,204.795624 154.704285,201.840546   C145.845718,187.961121 146.134613,173.902664 154.768311,160.052094   C156.545944,157.200317 156.379013,154.970566 154.797195,152.263275   C146.993820,138.907745 139.181000,125.555168 131.624420,112.059921   C129.853271,108.896851 127.540764,108.901260 124.580292,108.955147   C99.870979,109.404884 81.875923,89.526077 84.897110,65.236282   C86.788971,50.026119 98.818512,35.794735 113.966507,32.493896   C129.997818,29.000576 144.049164,33.174767 154.600372,46.370613   C163.856262,57.946472 165.139023,76.155769 156.959320,89.111900   C154.127182,93.597824 154.620148,96.536865 157.064682,100.604561   C164.351837,112.730431 171.418701,124.994644 178.282013,137.365509   C180.248535,140.910110 182.552048,142.086105 186.568893,142.112946   C211.019730,142.276337 227.292328,159.566696 226.003891,183.668167   C224.910629,204.118454 205.266434,221.256409 184.873291,219.374115   C182.198898,219.127274 180.624435,219.590271 179.235916,222.034134   C171.342346,235.927109 163.390427,249.789841 155.205795,263.512207   C153.461639,266.436462 154.962662,268.111115 156.242554,270.188202   C169.845459,292.263855 159.670319,320.210358 135.111435,328.235962   C114.442047,334.990509 91.748970,322.984436 86.103363,302.307648   C80.256676,280.894409 93.337280,258.428802 114.563301,253.586121   C116.972755,253.036407 119.604225,252.578674 121.987808,252.967285   C128.337296,254.002533 132.134933,251.432312 134.317627,245.278656  z"/>
<path fill="#DAA858" opacity="1.000000" stroke="none" d=" M289.248230,298.083008   C285.309174,318.702393 266.212402,332.548126 245.884201,329.887115   C225.235504,327.184113 210.691696,309.431122 212.069016,288.610382   C213.333084,269.501556 230.152817,253.108475 249.277786,253.092911   C255.175674,253.088104 258.468597,251.487457 261.321259,246.094666   C268.006958,233.455750 275.692596,221.348892 282.634521,208.838577   C283.540222,207.206360 283.189636,204.033295 282.173126,202.309982   C273.025909,186.802353 273.699585,169.328857 285.002380,155.221161   C295.378479,142.270111 309.367737,138.948578 324.904419,142.947296   C340.103485,146.859085 349.876221,157.113815 352.824860,172.447922   C356.988678,194.101059 345.595520,212.153549 324.731018,218.145569   C320.687347,219.306870 316.211365,218.884949 311.987030,219.533371   C310.292938,219.793427 307.995300,220.527313 307.236755,221.799469   C298.968903,235.665207 290.865845,249.632492 283.001740,263.730438   C282.226410,265.120392 282.759338,267.890442 283.661469,269.458069   C288.732025,278.269287 291.307251,287.480316 289.248230,298.083008  z"/>
<path fill="#DAA858" opacity="1.000000" stroke="none" d=" M256.357788,108.604202   C230.043137,110.723732 210.990219,92.920700 211.988907,67.645157   C212.751358,48.348373 228.903244,32.680206 249.579712,31.180117   C268.180847,29.830591 285.794189,43.630520 289.108490,62.150620   C293.170929,84.851402 279.390259,104.618446 256.357788,108.604202  z"/>
<path fill="#DAA858" opacity="1.000000" stroke="none" d=" M22.247238,169.515717   C29.210077,149.263199 48.075737,138.506195 68.648186,142.939285   C83.918060,146.229782 93.404068,156.070206 97.319138,170.996658   C103.749458,195.512695 84.170555,220.304092 59.130581,219.688660   C32.752338,219.040329 15.366108,195.657974 22.247238,169.515717  z"/>
</svg>
